<svg xmlns="http://www.w3.org/2000/svg" viewBox="0 0 24 24" fill="currentColor" class="w-6 h-6">
  <path fill-rule="evenodd" d="M11.484 2.25c.141.022.273.06.404.108V2.25H12c.414 0 .75.336.75.75v.696c.184.07.357.154.52.25l.706-.705a.75.75 0 0 1 1.06 0l.919.92a.75.75 0 0 1 0 1.06l-.705.706c.096.163.18.336.25.52h.696c.414 0 .75.336.75.75v.016c.048.13.086.262.108.404h.016a.75.75 0 0 1 .75.75v.75c0 .414-.336.75-.75.75h-.696a4.48 4.48 0 0 1-.25.52l.705.706a.75.75 0 0 1 0 1.06l-.92.919a.75.75 0 0 1-1.06 0l-.706-.705a4.48 4.48 0 0 1-.52.25v.696c0 .414-.336.75-.75.75h-.016a.75.75 0 0 1-.75-.75v-.016a.75.75 0 0 1-.404-.108H12c-.414 0-.75-.336-.75-.75v-.696a4.48 4.48 0 0 1-.52-.25l-.706.705a.75.75 0 0 1-1.06 0l-.919-.92a.75.75 0 0 1 0-1.06l.705-.706a4.48 4.48 0 0 1-.25-.52H2.25a.75.75 0 0 1-.75-.75v-.75c0-.414.336-.75.75-.75h.696c.07-.184.154-.357.25-.52l-.705-.706a.75.75 0 0 1 0-1.06l.92-.919a.75.75 0 0 1 1.06 0l.706.705c.163-.096.336-.18.52-.25V2.25c0-.414.336-.75.75-.75h.016a.75.75 0 0 1 .75.75v.016Zm2.25 6.75a3 3 0 1 1 0 6 3 3 0 0 1 0-6Z" clip-rule="evenodd" />
</svg>
